# AST/ASF file generated using VICON BodyLanguage
# -----------------------------------------------
:version 1.10
:name VICON
:units
  mass 1.0
  length 0.45
  angle deg
:documentation
   .ast/.asf automatically generated from VICON data using
   VICON BodyBuilder and BodyLanguage model FoxedUp or BRILLIANT.MOD
:root
   order TX TY TZ RX RY RZ
   axis XYZ
   position 0 0 0  
   orientation 0 0 0 
:bonedata
  begin
     id 1 
     name lhipjoint
     direction 0.528046 -0.759594 0.379717 
     length 2.39752 
     axis 0 0 0  XYZ
  end
  begin
     id 2 
     name lfemur
     direction 0.34202 -0.939693 0  
     length 7.31175  
     axis 0 0 20  XYZ
    dof rx ry rz
    limits (-160.0 20.0)
           (-70.0 70.0)
           (-60.0 70.0)
  end
  begin
     id 3 
     name ltibia
     direction 0.34202 -0.939693 0   
     length 7.52482   
     axis 0 0 20   XYZ
    dof rx
    limits (-10.0 170.0)
  end
  begin
     id 4 
     name lfoot
     direction 0.0675379 -0.185559 0.980309   
     length 2.00961   
     axis -90 7.62852e-016 20   XYZ
    dof rx rz
    limits (-45.0 90.0)
           (-70.0 20.0)
  end
  begin
     id 5 
     name ltoes
     direction 1.5352e-011 -4.22286e-011 1   
     length 1.01383   
     axis -90 7.62852e-016 20   XYZ
    dof rx
    limits (-90.0 20.0)
  end
  begin
     id 6 
     name rhipjoint
     direction -0.510274 -0.769251 0.384544   
     length 2.36742  
     axis 0 0 0  XYZ 
  end
  begin
     id 7 
     name rfemur
     direction -0.34202 -0.939693 0   
     length 7.45325   
     axis 0 0 -20   XYZ
    dof rx ry rz
    limits (-160.0 20.0)
           (-70.0 70.0)
           (-70.0 60.0)
  end
  begin
     id 8 
     name rtibia
     direction -0.34202 -0.939693 0   
     length 7.49587   
     axis 0 0 -20   XYZ
    dof rx
    limits (-10.0 170.0)
 end
 begin
     id 9 
     name rfoot
     direction -0.106475 -0.292536 0.950308   
     length 2.20898  
     axis -90 -7.62852e-016 -20   XYZ
    dof rx rz
    limits (-45.0 90.0)
           (-20.0 70.0)
  end
  begin
     id 10 
     name rtoes
     direction -1.53597e-011 -4.22023e-011 1   
     length 1.10065   
     axis -90 -7.62852e-016 -20   XYZ
    dof rx
    limits (-90.0 20.0)
  end
  begin
     id 11 
     name lowerback
     direction 0.0260024 0.998026 -0.0571652   
     length 2.11214   
     axis 0 0 0   XYZ
    dof rx ry rz
    limits (-20.0 45.0)
           (-30.0 30.0)
           (-30.0 30.0)
  end
  begin
     id 12 
     name upperback
     direction 0.0216202 0.999542 -0.0211766   
     length 2.11689   
     axis 0 0 0   XYZ
    dof rx ry rz
    limits (-20.0 45.0)
           (-30.0 30.0)
           (-30.0 30.0)
  end
  begin
     id 13 
     name thorax
     direction 0.00883312 0.999944 0.00589057   
     length 2.11821   
     axis 0 0 0   XYZ
    dof rx ry rz
    limits (-20.0 45.0)
           (-30.0 30.0)
           (-30.0 30.0)
  end
  begin
     id 14 
     name lowerneck
     direction -0.059386 0.994433 0.0870401   
     length 1.81176   
     axis 0 0 0   XYZ
    dof rx ry rz
    limits (-20.0 45.0)
           (-30.0 30.0)
           (-30.0 30.0)
  end
  begin
     id 15 
     name upperneck
     direction 0.0506457 0.97328 -0.223967   
     length 1.82382   
     axis 0 0 0   XYZ
    dof rx ry rz
    limits (-20.0 45.0)
           (-30.0 30.0)
           (-30.0 30.0)
  end
  begin
     id 16
     name head
     direction 0.0205902 0.996147 -0.0852487  
     length 1.84805  
     axis 0 0 0   XYZ
    dof rx ry rz
    limits (-20.0 45.0)
           (-30.0 30.0)
           (-30.0 30.0)
  end
  begin
     id 17 
     name lclavicle
     direction 0.949493 0.303881 -0.0782325  
     length 3.60584  
     axis 0 0 0   XYZ
    dof ry rz
    limits (-20.0 10.0)
           (0.0 20.0)
  end
  begin
     id 18 
     name lhumerus
     direction 1 -4.48965e-011 1.48782e-027   
     length 4.95681   
     axis 180 -30 -90   XYZ
    dof rx ry rz
    limits (-60.0 90.0)
           (-90.0 90.0)
           (-90.0 90.0)
  end
  begin
     id 19
     name lradius
     direction 1 -4.48952e-011 2.06528e-027   
     length 3.40915   
     axis 180 -30 -90   XYZ
    dof rx
    limits (-10.0 170.0)
  end
  begin
     id 20
     name lwrist
     direction 1 -4.48964e-011 1.28021e-027   
     length 1.70457   
     axis -1.61767e-015 90 90   XYZ
    dof ry
    limits (-180.0 0.0)
 end
  begin
     id 21 
     name lhand
     direction 1 -4.49094e-011 2.54887e-027   
     length 0.616403   
     axis -1.63363e-015 90 90   XYZ
    dof rx rz
    limits (-90.0 90.0)
           (-45.0 45.0)
  end
  begin
     id 22 
     name lfingers
     direction 1 -4.49002e-011 5.11407e-027   
     length 0.49696   
     axis -3.26723e-015 90 90   XYZ
    dof rx
    limits (0.0 90.0)
  end
  begin
     id 23
     name lthumb
     direction 0.707107 -6.34998e-011 0.707107   
     length 0.713539   
     axis -90 45 -2.25915e-014   XYZ
    dof rx rz
    limits (-45.0 45.0)
           (-45.0 45.0)
  end
  begin
     id 24 
     name rclavicle
     direction -0.937751 0.334612 -0.0930482   
     length 3.46287  
     axis 0 0 0   XYZ 
    dof ry rz
    limits (-10.0 20.0)
           (-20.0 0.0)
  end
  begin
     id 25 
     name rhumerus
     direction -1 -4.48962e-011 3.59972e-027  
     length 5.352   
     axis 180 30 90   XYZ
    dof rx ry rz
    limits (-90.0 60.0)
           (-90.0 90.0)
           (-90.0 90.0)
  end
  begin
     id 26 
     name rradius
     direction -1 -4.48987e-011 -3.76925e-027   
     length 3.43721   
     axis 180 30 90   XYZ
    dof rx
    limits (-10.0 170.0)
  end
  begin
     id 27 
     name rwrist
     direction -1 -4.48943e-011 1.28112e-027   
     length 1.7186   
     axis -1.61767e-015 -90 -90   XYZ
    dof ry
    limits (-180.0 0.0)
  end
  begin
     id 28
     name rhand
     direction -1 -4.49027e-011 2.55483e-027   
     length 0.72009   
     axis -1.63363e-015 -90 -90   XYZ
    dof rx rz
    limits (-90.0 90.0)
           (-45.0 45.0)
  end
  begin
     id 29
     name rfingers
     direction -1 -4.48827e-011 5.14506e-027   
     length 0.580555   
     axis -3.26723e-015 -90 -90   XYZ
    dof rx
    limits (0.0 90.0)
  end
  begin
     id 30
     name rthumb
     direction -0.707107 -6.34936e-011 0.707107   
     length 0.833564   
     axis -90 -45 2.25915e-014   XYZ
    dof rx rz
    limits (-45.0 45.0)
           (-45.0 45.0)
  end
:hierarchy
  begin
    root lhipjoint rhipjoint lowerback
    lhipjoint lfemur
    lfemur ltibia
    ltibia lfoot
    lfoot ltoes
    rhipjoint rfemur
    rfemur rtibia
    rtibia rfoot
    rfoot rtoes
    lowerback upperback
    upperback thorax
    thorax lowerneck lclavicle rclavicle
    lowerneck upperneck
    upperneck head
    lclavicle lhumerus
    lhumerus lradius
    lradius lwrist
    lwrist lhand lthumb
    lhand lfingers
    rclavicle rhumerus
    rhumerus rradius
    rradius rwrist
    rwrist rhand rthumb
    rhand rfingers
  end

#!OML:ASF H:\Terrain\Patient Classification 1\Terrain2\Thursday\justin.ASF
:FULLY-SPECIFIED
:DEGREES
824
root 19.348 20.5712 1.0333 -0.18765 -4.36868 -10.761
lowerback 13.3917 0.46869 12.4938
upperback 5.48128 2.28219 5.34933
thorax -1.37799 1.22575 -1.67232
lowerneck -10.5635 -2.20938 -9.56482
upperneck 37.9847 -2.2991 4.15891
head 15.2303 -1.77048 3.12022
rclavicle 1.98785e-014 2.78299e-014
rhumerus -20.9368 -6.81377 -76.8789
rradius 32.3841
rwrist -12.3834
rhand -22.2177 9.12658
rfingers 7.12502
rthumb 4.19856 -20.8118
lclavicle 1.98785e-014 2.78299e-014
lhumerus -37.1665 12.7922 81.9073
lradius 24.6186
lwrist -3.02306
lhand -23.9956 17.8074
lfingers 7.12502
lthumb 2.48166 47.7727
rfemur 2.34867 -2.67428 34.06
rtibia 21.9389
rfoot -18.7123 17.609
rtoes 28.3521
lfemur -67.1135 7.77853 -9.82418
ltibia 79.9479
lfoot -4.96583 -15.5719
ltoes -11.026
825
root 19.3449 20.5751 1.11495 -0.271825 -4.23405 -10.6663
lowerback 13.4566 0.479336 12.2436
upperback 5.48677 2.27729 5.36679
thorax -1.42257 1.21849 -1.51945
lowerneck -10.7346 -2.24657 -9.54819
upperneck 38.2042 -2.33116 4.1302
head 15.3836 -1.78958 3.10701
rclavicle -3.81667e-014 -1.00983e-013
rhumerus -20.7532 -7.09418 -76.7454
rradius 32.5017
rwrist -11.7263
rhand -22.3157 9.12811
rfingers 7.12502
rthumb 4.10395 -20.8121
lclavicle -3.81667e-014 -1.00983e-013
lhumerus -37.1878 13.2061 81.6756
lradius 24.273
lwrist -3.45934
lhand -24.1647 17.7057
lfingers 7.12502
lthumb 2.31826 47.6729
rfemur 2.7882 -2.59449 33.9501
rtibia 21.906
rfoot -18.9553 17.4154
rtoes 27.557
lfemur -66.8496 7.55422 -9.94022
ltibia 79.8059
lfoot -4.07271 -15.2006
ltoes -8.71645
826
root 19.3428 20.5716 1.19892 -0.0914988 -4.00584 -10.8293
lowerback 13.2356 0.496073 12.3244
upperback 5.45022 2.27854 5.42491
thorax -1.34006 1.22281 -1.49709
lowerneck -10.7173 -2.29406 -9.6538
upperneck 38.1632 -2.44701 4.32646
head 15.3745 -1.82633 3.19144
rclavicle -6.95746e-015 2.22639e-014
rhumerus -20.7409 -6.87374 -76.8283
rradius 32.7599
rwrist -13.1672
rhand -22.948 10.6026
rfingers 7.12502
rthumb 3.4933 -19.3485
lclavicle -6.95746e-015 2.22639e-014
lhumerus -37.1522 13.3068 81.5937
lradius 24.2857
lwrist -3.49399
lhand -23.8708 18.2482
lfingers 7.12502
lthumb 2.60209 48.212
rfemur 3.04498 -2.46534 34.1548
rtibia 21.5545
rfoot -18.9267 17.3004
rtoes 27.4895
lfemur -66.988 7.44496 -9.858
ltibia 79.7502
lfoot -3.09995 -15.1247
ltoes -6.10728
827
root 19.3447 20.5694 1.28414 0.0940836 -3.81488 -10.9002
lowerback 12.9682 0.541147 12.4492
upperback 5.45931 2.30522 5.37639
thorax -1.17302 1.24727 -1.61209
lowerneck -10.5743 -2.33675 -9.68551
upperneck 37.9227 -2.59224 4.54224
head 15.237 -1.85814 3.25971
rclavicle -1.51076e-014 2.94201e-014
rhumerus -20.7987 -6.46662 -77.0651
rradius 32.9595
rwrist -15.5495
rhand -23.4539 11.8554
rfingers 7.12502
rthumb 3.00472 -18.1032
lclavicle -1.51076e-014 2.94201e-014
lhumerus -37.1161 12.8532 81.6609
lradius 24.5137
lwrist -3.23548
lhand -23.6883 18.6359
lfingers 7.12502
lthumb 2.77841 48.5976
rfemur 3.3047 -2.22515 34.2646
rtibia 21.244
rfoot -19.0031 17.0827
rtoes 27.382
lfemur -67.0943 7.28165 -9.90196
ltibia 79.7878
lfoot -2.89288 -14.9294
ltoes -6.42416
828
root 19.3457 20.5887 1.36904 0.183424 -3.75956 -11.3246
lowerback 12.8653 0.574659 12.8857
upperback 5.49935 2.37838 5.42461
thorax -1.04236 1.29634 -1.80201
lowerneck -10.7732 -2.36652 -9.6354
upperneck 37.9989 -2.67074 4.65906
head 15.3294 -1.86859 3.29182
rclavicle 1.19271e-015 -9.54166e-015
rhumerus -20.7652 -7.03251 -76.9218
rradius 33.2946
rwrist -14.3653
rhand -23.1782 10.0703
rfingers 7.12502
rthumb 3.27099 -19.8844
lclavicle 1.19271e-015 -9.54166e-015
lhumerus -37.1028 12.5139 81.6893
lradius 24.6683
lwrist -2.87416
lhand -23.8408 18.9631
lfingers 7.12502
lthumb 2.63106 48.9266
rfemur 3.71017 -1.84414 34.7968
rtibia 20.9279
rfoot -18.9758 16.586
rtoes 27.1506
lfemur -66.79 6.92152 -9.30737
ltibia 79.7995
lfoot -2.81231 -14.5187
ltoes -6.69779
829
root 19.3484 20.5609 1.46004 0.246875 -3.72895 -11.5009
lowerback 12.8847 0.564774 12.9524
upperback 5.41937 2.38752 5.4606
thorax -1.13577 1.29372 -1.8034
lowerneck -10.8801 -2.3422 -9.62172
upperneck 38.1741 -2.63699 4.67919
head 15.4389 -1.85361 3.30958
rclavicle -2.50469e-014 9.54166e-015
rhumerus -20.8366 -7.26534 -76.909
rradius 33.5168
rwrist -13.6975
rhand -22.9478 9.15813
rfingers 7.12502
rthumb 3.49347 -20.793
lclavicle -2.50469e-014 9.54166e-015
lhumerus -37.2595 12.7736 81.4507
lradius 24.658
lwrist -2.59013
lhand -23.5101 19.3319
lfingers 7.12502
lthumb 2.9505 49.2913
rfemur 4.03317 -1.63619 34.9959
rtibia 20.7946
rfoot -18.8196 16.5013
rtoes 27.562
lfemur -66.8256 7.19195 -9.30301
ltibia 80.0635
lfoot -2.52016 -14.4276
ltoes -6.93109
830
root 19.3547 20.5463 1.54766 0.282494 -3.53987 -11.1538
lowerback 12.9278 0.538878 12.5458
upperback 5.304 2.32672 5.37804
thorax -1.31043 1.24771 -1.66761
lowerneck -10.6351 -2.32104 -9.68421
upperneck 38.0057 -2.61836 4.69731
head 15.296 -1.85018 3.32537
rclavicle 1.13307e-014 5.56597e-014
rhumerus -20.8957 -6.77486 -77.1297
rradius 33.5944
rwrist -14.9526
rhand -23.6242 9.92138
rfingers 7.12502
rthumb 2.8403 -20.0395
lclavicle 1.13307e-014 5.56597e-014
lhumerus -37.4528 13.1894 81.1727
lradius 24.6757
lwrist -2.67204
lhand -22.9291 19.4096
lfingers 7.12502
lthumb 3.51156 49.3605
rfemur 4.23718 -1.85251 34.5206
rtibia 20.7876
rfoot -18.8043 16.8728
rtoes 27.654
lfemur -66.7022 7.03741 -9.84522
ltibia 80.2668
lfoot -2.68262 -14.0322
ltoes -9.36388
831
root 19.3627 20.5385 1.63914 0.442809 -3.32922 -10.6979
lowerback 12.6815 0.602627 12.0456
upperback 5.32003 2.30751 5.28976
thorax -1.1855 1.24092 -1.48117
lowerneck -10.6694 -2.35869 -9.71246
upperneck 37.8162 -2.64411 4.66385
head 15.2134 -1.86331 3.30565
rclavicle -8.74653e-015 -7.95139e-016
rhumerus -20.7174 -6.60812 -77.1822
rradius 33.6735
rwrist -15.6657
rhand -23.9562 11.6348
rfingers 7.12502
rthumb 2.51971 -18.3301
lclavicle -8.74653e-015 -7.95139e-016
lhumerus -37.4473 13.2513 81.2233
lradius 24.9418
lwrist -2.74519
lhand -22.8926 19.2811
lfingers 7.12502
lthumb 3.54683 49.2313
rfemur 4.18467 -2.1999 33.8963
rtibia 21.0214
rfoot -18.931 17.2997
rtoes 27.2365
lfemur -66.526 6.80918 -10.4973
ltibia 80.4157
lfoot -2.7668 -13.925
ltoes -10.4546
832
root 19.3657 20.5377 1.73765 0.600942 -3.29835 -10.4302
lowerback 12.4273 0.755807 11.6596
upperback 5.34126 2.42016 5.24235
thorax -1.03179 1.30085 -1.32835
lowerneck -10.9328 -2.44466 -9.70025
upperneck 37.9984 -2.71722 4.58811
head 15.3744 -1.90319 3.26594
rclavicle -6.16232e-015 2.14687e-014
rhumerus -20.7274 -7.16593 -76.9754
rradius 33.8537
rwrist -14.5691
rhand -23.2826 13.5568
rfingers 7.12502
rthumb 3.17017 -16.3994
lclavicle -6.16232e-015 2.14687e-014
lhumerus -37.4507 13.0072 81.3494
lradius 25.2461
lwrist -2.79733
lhand -23.002 19.3807
lfingers 7.12502
lthumb 3.44113 49.3327
rfemur 4.29864 -2.20525 33.5211
rtibia 21.086
rfoot -18.7986 17.6057
rtoes 26.944
lfemur -66.228 6.83343 -10.915
ltibia 80.5138
lfoot -2.69503 -14.1915
ltoes -7.85274
833
root 19.367 20.5334 1.82827 0.721255 -3.26562 -10.7859
lowerback 12.4786 0.832311 11.969
upperback 5.22698 2.57797 5.28153
thorax -1.14895 1.37325 -1.47771
lowerneck -10.9119 -2.54215 -9.78955
upperneck 38.1067 -2.90345 4.75675
head 15.4481 -1.97451 3.32947
rclavicle 1.07344e-014 3.73715e-014
rhumerus -20.9674 -7.89255 -76.801
rradius 33.9554
rwrist -13.2581
rhand -22.7069 13.9271
rfingers 7.12502
rthumb 3.72611 -16.0201
lclavicle 1.07344e-014 3.73715e-014
lhumerus -37.5383 12.7211 81.2989
lradius 25.41
lwrist -2.64726
lhand -22.9874 19.7839
lfingers 7.12502
lthumb 3.45528 49.7357
rfemur 4.63961 -1.79417 33.9249
rtibia 21.0286
rfoot -18.84 17.3709
rtoes 26.0288
lfemur -65.9992 6.93438 -10.6064
ltibia 80.6922
lfoot -2.69414 -14.8401
ltoes -3.76003
